<?xml version="1.0" encoding="UTF-8" standalone="no"?>
<svg
   width="223"
   height="223"
   viewBox="0 0 223 223"
   fill="none"
   version="1.1"
   id="svg19"
   sodipodi:docname="detamvc.svg"
   inkscape:version="1.1.1 (3bf5ae0d25, 2021-09-20)"
   xmlns:inkscape="http://www.inkscape.org/namespaces/inkscape"
   xmlns:sodipodi="http://sodipodi.sourceforge.net/DTD/sodipodi-0.dtd"
   xmlns="http://www.w3.org/2000/svg"
   xmlns:svg="http://www.w3.org/2000/svg">
  <sodipodi:namedview
     id="namedview21"
     pagecolor="#505050"
     bordercolor="#eeeeee"
     borderopacity="1"
     inkscape:pageshadow="0"
     inkscape:pageopacity="0"
     inkscape:pagecheckerboard="0"
     showgrid="false"
     inkscape:zoom="1.374026"
     inkscape:cx="384.63611"
     inkscape:cy="111.7155"
     inkscape:window-width="1920"
     inkscape:window-height="1009"
     inkscape:window-x="-8"
     inkscape:window-y="-8"
     inkscape:window-maximized="1"
     inkscape:current-layer="g12" />
  <g
     clip-path="url(#clip0)"
     id="g12">
    <path
       d="m 111.14,0 c 61.38,0 111.139,49.7054 111.139,111.02 0,61.315 -49.759,111.02 -111.139,111.02 C 49.7589,222.04 0,172.335 0,111.02 0,49.7054 49.7589,0 111.14,0 Z"
       fill="#ef39a8"
       id="path2" />
    <path
       d="m 111.404,21.6757 c 49.689,0 89.97,40.2376 89.97,89.8733 0,49.636 -40.281,89.873 -89.97,89.873 -49.689,0 -89.9702,-40.237 -89.9702,-89.873 0,-49.6357 40.2812,-89.8733 89.9702,-89.8733 z"
       fill="#bd399c"
       id="path4" />
    <path
       d="m 111.404,45.4653 c 36.536,0 66.154,29.5861 66.154,66.0837 0,36.497 -29.618,66.083 -66.154,66.083 -36.536,0 -66.154,-29.586 -66.154,-66.083 0,-36.4976 29.618,-66.0837 66.154,-66.0837 z"
       fill="#93388e"
       id="path6" />
    <path
       d="m 110.874,65.5554 c 24.844,0 44.985,20.1184 44.985,44.9366 0,24.817 -20.141,44.936 -44.985,44.936 -24.8437,0 -44.9846,-20.119 -44.9846,-44.936 0,-24.8182 20.1409,-44.9366 44.9846,-44.9366 z"
       fill="#6030a2"
       id="path8" />
  </g>
  <defs
     id="defs17" />
</svg>
