<?xml version="1.0" encoding="UTF-8" standalone="no"?>
<svg
   id="svg8"
   version="1.1"
   viewBox="0 0 9.5250022 9.5250022"
   height="36"
   width="36"
   sodipodi:docname="detamvc.svg"
   inkscape:version="1.2 (dc2aedaf03, 2022-05-15)"
   xmlns:inkscape="http://www.inkscape.org/namespaces/inkscape"
   xmlns:sodipodi="http://sodipodi.sourceforge.net/DTD/sodipodi-0.dtd"
   xmlns="http://www.w3.org/2000/svg"
   xmlns:svg="http://www.w3.org/2000/svg"
   xmlns:rdf="http://www.w3.org/1999/02/22-rdf-syntax-ns#"
   xmlns:cc="http://creativecommons.org/ns#"
   xmlns:dc="http://purl.org/dc/elements/1.1/">
  <sodipodi:namedview
     id="namedview16"
     pagecolor="#ffffff"
     bordercolor="#000000"
     borderopacity="0.25"
     inkscape:showpageshadow="2"
     inkscape:pageopacity="0.0"
     inkscape:pagecheckerboard="0"
     inkscape:deskcolor="#d1d1d1"
     inkscape:document-units="mm"
     showgrid="false"
     inkscape:zoom="12.212324"
     inkscape:cx="11.013465"
     inkscape:cy="13.183404"
     inkscape:window-width="1920"
     inkscape:window-height="1009"
     inkscape:window-x="-8"
     inkscape:window-y="-8"
     inkscape:window-maximized="1"
     inkscape:current-layer="layer1" />
  <defs
     id="defs2" />
  <metadata
     id="metadata10726">
    <rdf:RDF>
      <cc:Work
         rdf:about="">
        <dc:format>image/svg+xml</dc:format>
        <dc:type
           rdf:resource="http://purl.org/dc/dcmitype/StillImage" />
      </cc:Work>
    </rdf:RDF>
  </metadata>
  <g
     transform="translate(-87.539286,-84.426191)"
     id="layer1">
    <path
       d="m 92.313449,84.584498 c 2.557171,0 4.630182,2.073016 4.630182,4.630208 0,2.557198 -2.073011,4.630209 -4.630182,4.630209 -2.557219,0 -4.630235,-2.073011 -4.630235,-4.630209 0,-2.557192 2.073016,-4.630208 4.630235,-4.630208 z"
       fill="#f73b95"
       id="path4411"
       style="stroke-width:0.264583" />
    <path
       d="m 92.324455,85.488577 c 2.0701,0 3.748247,1.678154 3.748247,3.748275 0,2.0701 -1.678147,3.748246 -3.748247,3.748246 -2.070108,0 -3.748272,-1.678146 -3.748272,-3.748246 0,-2.070121 1.678164,-3.748275 3.748272,-3.748275 z"
       fill="#bd399c"
       id="path4413"
       style="stroke-width:0.264583" />
    <path
       d="m 92.324429,86.480764 c 1.522121,0 2.756059,1.233914 2.756059,2.756088 0,1.522148 -1.233938,2.756059 -2.756059,2.756059 -1.522148,0 -2.756059,-1.233911 -2.756059,-2.756059 0,-1.522174 1.233911,-2.756088 2.756059,-2.756088 z"
       fill="#f73b95"
       id="path4415"
       style="stroke-width:0.264583" />
    <path
       style="mix-blend-mode:normal;fill:#6030a2;fill-opacity:1;stroke-width:0.280244"
       id="path817"
       d="m 92.289368,86.429845 c -1.537533,0 -2.78486,1.258101 -2.78486,2.808913 0,1.550813 1.247327,2.808914 2.78486,2.808914 1.537532,0 2.78486,-1.258101 2.78486,-2.808914 0,-1.550812 -1.247328,-2.808913 -2.78486,-2.808913 z m -0.145103,5.060548 v -1.761904 h -0.971073 l 1.395219,-2.741365 v 1.761904 h 0.934798 z" />
  </g>
</svg>
